<svg version="1.1" xmlns="http://www.w3.org/2000/svg" xmlns:xlink="http://www.w3.org/1999/xlink" width="196.85816" height="54.4582" viewBox="0,0,196.85816,54.4582"><g transform="translate(-375.74052,-302.46177)"><g stroke-miterlimit="10"><path d="M570.34412,315.83036c0,17.47715 -62.77959,39.37387 -95.27598,39.37387c-32.49637,0 -96.93041,-24.88618 -96.93041,-42.36335c0,-17.47715 63.91561,-2.39681 96.412,-2.39681c32.49637,0 95.79439,-12.09086 95.79439,5.38629z" fill="#000000" stroke="#000000" stroke-width="1"/><path d="M533.98711,342.86175c-3.05196,5.97974 -55.37409,15.10393 -72.73962,11.83417c-17.36552,-3.26976 -37.78198,-6.67455 -34.73003,-12.65428c3.05196,-5.97974 28.41659,-12.27003 45.78212,-9.00027c17.36551,3.26976 64.73946,3.84065 61.68751,9.82038z" fill="#f095f7" stroke="#000000" stroke-width="0.5"/><path d="M571.34868,315.11947c0,17.63604 -62.70876,40.5505 -95.50057,40.5505c-32.79179,0 -98.85759,-25.52077 -98.85759,-43.15683c0,-17.63604 65.54265,-3.31707 98.33446,-3.31707c32.79179,0 96.0237,-11.71266 96.0237,5.92339z" fill-opacity="0.00392" fill="#000000" stroke="#d4af37" stroke-width="2.5"/></g></g></svg>