<svg version="1.1" xmlns="http://www.w3.org/2000/svg" xmlns:xlink="http://www.w3.org/1999/xlink" width="113.50001" height="57.22718" viewBox="0,0,113.50001,57.22718"><g transform="translate(-419.49052,-287.35401)"><g stroke-miterlimit="10"><path d="M530.74053,305.00482c0,18.50154 -33.93856,37.83333 -54.83334,37.83333c-20.89477,0 -55.16667,-20.33179 -55.16667,-38.83333c0,-18.50154 33.93856,-15.16667 54.83334,-15.16667c20.89477,0 55.16667,-2.33487 55.16667,16.16667z" fill="#000000" stroke="#000000" stroke-width="1"/><path d="M513.79137,329.77225c-1.96237,6.33023 -35.60486,15.98921 -46.77068,12.5278c-11.16582,-3.46141 -24.29335,-7.06576 -22.33098,-13.39598c1.96237,-6.33023 18.27152,-12.98921 29.43734,-9.5278c11.16581,3.46141 41.62668,4.06576 39.66431,10.39598z" fill="#f095f7" stroke="#000000" stroke-width="0.5"/><path d="M531.74053,305.15392c0,18.66974 -34.24709,38.17727 -55.33182,38.17727c-21.08472,0 -55.66819,-20.51662 -55.66819,-39.18636c0,-18.66974 34.24709,-15.30455 55.33182,-15.30455c21.08472,0 55.66819,-2.3561 55.66819,16.31364z" fill-opacity="0.00392" fill="#000000" stroke="#d4af37" stroke-width="2.5"/></g></g></svg>