<svg version="1.1" xmlns="http://www.w3.org/2000/svg" xmlns:xlink="http://www.w3.org/1999/xlink" width="1241" height="693" viewBox="0,0,1241,693"><g transform="translate(120.6875,31.28978)"><g stroke-miterlimit="10"><path d="M-120.6875,661.71022v-693h1241v693z" fill="#000000" stroke="#ffffff" stroke-width="0"/><path d="M586.70802,74.86399l-12.43235,6.21618c-29.3339,-28.69706 -65.02189,-46.02894 -99.27567,-46.02894c-34.24775,0 -69.92444,17.34319 -99.25306,46.041l-12.45421,-6.22823c30.82463,-31.48258 70.26057,-50.36399 111.70727,-50.36399c41.44745,0 80.88263,18.88141 111.70802,50.36399zM353.79437,85.28482l12.16254,6.08052c-0.52982,0.59539 -1.06341,1.1855 -1.5872,1.78843c-29.89537,34.37889 -51.07318,81.59032 -52.75007,134.83403h-10.5678c1.52239,-56.13701 21.80711,-106.24927 52.74329,-142.70374zM596.20563,85.28407c30.93618,36.45446 51.2209,86.56673 52.74329,142.70374h-10.5678c-1.67614,-53.2912 -22.85394,-100.50338 -52.75082,-134.87247c-0.51701,-0.59388 -1.04306,-1.1742 -1.5646,-1.76055l12.13918,-6.07072zM378.56185,184.12488c2.62801,0.00754 5.24546,0.84862 5.24546,2.41171v144.70244c0,3.01463 -10.55122,3.01463 -10.55122,0v-144.5404c0.04673,-1.7613 2.68076,-2.58354 5.30726,-2.57374zM571.43739,184.12412c2.62499,-0.00904 5.26054,0.8132 5.30576,2.5745v144.5404c0,3.01463 -10.55122,3.01463 -10.55122,0v-144.70244c0,-1.56309 2.61746,-2.40417 5.24546,-2.41171zM359.69024,323.90593c-11.77441,-1.8035 -19.32607,-8.41083 -24.97097,-18.57015c-6.66611,-12.0005 -9.69732,-29.11383 -9.69732,-46.44798c0,-17.33415 3.03121,-34.44672 9.69732,-46.44798c5.64415,-10.15932 13.19656,-16.76664 24.97097,-18.57015zM615.28072,212.43983c6.66611,12.0005 9.69732,29.11383 9.69732,46.44798c0,17.33415 -3.03121,34.44672 -9.69732,46.44798c-5.64415,10.15932 -13.19656,16.76664 -24.97097,18.57015v-130.03624c11.77441,1.8035 19.32607,8.41083 24.97097,18.57015zM311.4561,241.55366v34.66829h-10.55122v-34.66829zM649.09512,241.55366v34.66829h-10.55122v-34.66829z" fill="#ffffff" stroke="none" stroke-width="1"/><text transform="translate(105.3281,407.41909) scale(0.88102,0.88102)" font-size="40" xml:space="preserve" fill="#ffffff" stroke="#ffffff" stroke-width="1" font-family="Sans Serif" font-weight="400" text-anchor="start"><tspan x="0" dy="0">      It is recommended to play the game </tspan><tspan x="0" dy="46.15px">       with the sound on and headphones </tspan><tspan x="0" dy="46.15px"> for a more immersive and sensory experience</tspan></text></g></g></svg>