<svg version="1.1" xmlns="http://www.w3.org/2000/svg" xmlns:xlink="http://www.w3.org/1999/xlink" width="81.62998" height="41.51406" viewBox="0,0,81.62998,41.51406"><g transform="translate(-437.43501,-291.77778)"><g stroke-miterlimit="10"><path d="M517.10211,304.71964c0,13.18942 -24.19421,26.97072 -39.08974,26.97072c-14.89552,0 -39.32736,-14.49418 -39.32736,-27.6836c0,-13.18942 24.19421,-10.81205 39.08974,-10.81205c14.89552,0 39.32736,-1.66449 39.32736,11.52493z" fill="#000000" stroke="#000000" stroke-width="1"/><path d="M505.01934,322.37591c-1.39894,4.51271 -25.38209,11.39843 -33.34201,8.93085c-7.95992,-2.46758 -17.31831,-5.03706 -15.91937,-9.54976c1.39894,-4.51271 13.02545,-9.25978 20.98537,-6.7922c7.95991,2.46758 29.67494,2.89841 28.276,7.41112z" fill="#f095f7" stroke="#000000" stroke-width="0.5"/><path d="M517.81499,304.82593c0,13.30933 -24.41416,27.21592 -39.44509,27.21592c-15.03093,0 -39.68489,-14.62595 -39.68489,-27.93528c0,-13.30933 24.41416,-10.91035 39.44509,-10.91035c15.03093,0 39.68489,-1.67962 39.68489,11.62971z" fill-opacity="0.00392" fill="#000000" stroke="#d4af37" stroke-width="2.5"/></g></g></svg>