<svg version="1.1" xmlns="http://www.w3.org/2000/svg" xmlns:xlink="http://www.w3.org/1999/xlink" width="122" height="39.34665" viewBox="0,0,122,39.34665"><g transform="translate(-179,-162)"><g data-paper-data="{&quot;isPaintingLayer&quot;:true}" fill-rule="nonzero" stroke-linecap="butt" stroke-linejoin="miter" stroke-miterlimit="10" stroke-dasharray="" stroke-dashoffset="0" style="mix-blend-mode: normal"><path d="M179.77314,192.34664c0,-5.5976 0,-12.34239 0,-15.66667c0,-3.85247 4.60263,-9.33333 9.5,-9.33333c13.43312,0 76.73344,0 101,0c5.9061,0 9.5,2.81687 9.5,6.66667c0,6.45457 0,15.81267 0,19.66667c0,3.31982 -3.72878,7.66667 -9.83333,7.66667c-24.59948,0 -87.77781,0 -101,0c-4.74617,0 -9.16667,-4.05177 -9.16667,-9z" fill="#a99c12" stroke="none" stroke-width="0"/><path d="M180,188c0,-5.5976 0,-12.34239 0,-15.66667c0,-3.85247 4.60263,-9.33333 9.5,-9.33333c13.43312,0 76.73344,0 101,0c5.9061,0 9.5,2.81687 9.5,6.66667c0,6.45457 0,15.81267 0,19.66667c0,3.31982 -3.72878,7.66667 -9.83333,7.66667c-24.59948,0 -87.77781,0 -101,0c-4.74617,0 -9.16667,-4.05177 -9.16667,-9z" fill="#ff7745" stroke="#000000" stroke-width="2"/><text transform="translate(191.32005,185.76875) scale(0.5,0.5)" font-size="40" xml:space="preserve" fill="#000000" fill-rule="nonzero" stroke="none" stroke-width="1" stroke-linecap="butt" stroke-linejoin="miter" stroke-miterlimit="10" stroke-dasharray="" stroke-dashoffset="0" font-family="Sans Serif" font-weight="normal" text-anchor="start" style="mix-blend-mode: normal"><tspan x="0" dy="0">EL BOTON</tspan></text></g></g></svg>